<mxfile host="Electron" agent="Mozilla/5.0 (Windows NT 10.0; Win64; x64) AppleWebKit/537.36 (KHTML, like Gecko) draw.io/24.7.5 Chrome/126.0.6478.183 Electron/31.3.0 Safari/537.36" version="24.7.5">
  <diagram name="Page-1" id="3cAhoMNclQD1cuSLVMyC">
    <mxGraphModel dx="1050" dy="621" grid="1" gridSize="10" guides="1" tooltips="1" connect="1" arrows="1" fold="1" page="1" pageScale="1" pageWidth="850" pageHeight="1100" math="0" shadow="0">
      <root>
        <mxCell id="0" />
        <mxCell id="1" parent="0" />
        <mxCell id="FktnuqroC8EsysQ8ZLYT-8" style="edgeStyle=orthogonalEdgeStyle;rounded=0;orthogonalLoop=1;jettySize=auto;html=1;exitX=0.5;exitY=1;exitDx=0;exitDy=0;entryX=0.5;entryY=0;entryDx=0;entryDy=0;" edge="1" parent="1" source="FktnuqroC8EsysQ8ZLYT-1" target="FktnuqroC8EsysQ8ZLYT-3">
          <mxGeometry relative="1" as="geometry" />
        </mxCell>
        <mxCell id="FktnuqroC8EsysQ8ZLYT-1" value="Welcome" style="ellipse;whiteSpace=wrap;html=1;" vertex="1" parent="1">
          <mxGeometry x="340" width="120" height="80" as="geometry" />
        </mxCell>
        <mxCell id="FktnuqroC8EsysQ8ZLYT-2" value="Select&lt;div&gt;other&lt;/div&gt;&lt;div&gt;lenguage&lt;/div&gt;" style="rhombus;whiteSpace=wrap;html=1;" vertex="1" parent="1">
          <mxGeometry x="100" y="120" width="120" height="120" as="geometry" />
        </mxCell>
        <mxCell id="FktnuqroC8EsysQ8ZLYT-12" value="No" style="edgeStyle=orthogonalEdgeStyle;rounded=0;orthogonalLoop=1;jettySize=auto;html=1;exitX=1;exitY=0.5;exitDx=0;exitDy=0;entryX=0;entryY=0.5;entryDx=0;entryDy=0;" edge="1" parent="1" source="FktnuqroC8EsysQ8ZLYT-3" target="FktnuqroC8EsysQ8ZLYT-11">
          <mxGeometry relative="1" as="geometry" />
        </mxCell>
        <mxCell id="FktnuqroC8EsysQ8ZLYT-40" value="Do It" style="edgeStyle=orthogonalEdgeStyle;rounded=0;orthogonalLoop=1;jettySize=auto;html=1;exitX=0.5;exitY=1;exitDx=0;exitDy=0;entryX=0.5;entryY=0;entryDx=0;entryDy=0;" edge="1" parent="1" source="FktnuqroC8EsysQ8ZLYT-3" target="FktnuqroC8EsysQ8ZLYT-35">
          <mxGeometry relative="1" as="geometry" />
        </mxCell>
        <mxCell id="FktnuqroC8EsysQ8ZLYT-3" value="Insert card" style="rounded=1;whiteSpace=wrap;html=1;" vertex="1" parent="1">
          <mxGeometry x="360" y="200" width="80" height="40" as="geometry" />
        </mxCell>
        <mxCell id="FktnuqroC8EsysQ8ZLYT-14" value="Balance Inquirity" style="edgeStyle=orthogonalEdgeStyle;rounded=0;orthogonalLoop=1;jettySize=auto;html=1;exitX=1;exitY=0.5;exitDx=0;exitDy=0;entryX=0;entryY=0.5;entryDx=0;entryDy=0;" edge="1" parent="1" source="FktnuqroC8EsysQ8ZLYT-59" target="FktnuqroC8EsysQ8ZLYT-17">
          <mxGeometry relative="1" as="geometry">
            <mxPoint x="220" y="430" as="targetPoint" />
            <mxPoint x="452.5" y="550" as="sourcePoint" />
            <Array as="points">
              <mxPoint x="620" y="520" />
            </Array>
          </mxGeometry>
        </mxCell>
        <mxCell id="FktnuqroC8EsysQ8ZLYT-18" value="Exit" style="edgeStyle=orthogonalEdgeStyle;rounded=0;orthogonalLoop=1;jettySize=auto;html=1;exitX=1;exitY=0.5;exitDx=0;exitDy=0;entryX=0.5;entryY=1;entryDx=0;entryDy=0;" edge="1" parent="1" source="FktnuqroC8EsysQ8ZLYT-59" target="FktnuqroC8EsysQ8ZLYT-11">
          <mxGeometry relative="1" as="geometry">
            <mxPoint x="460" y="520" as="sourcePoint" />
            <Array as="points">
              <mxPoint x="440" y="430" />
              <mxPoint x="560" y="430" />
            </Array>
          </mxGeometry>
        </mxCell>
        <mxCell id="FktnuqroC8EsysQ8ZLYT-11" value="Go away" style="ellipse;whiteSpace=wrap;html=1;" vertex="1" parent="1">
          <mxGeometry x="520" y="200" width="80" height="40" as="geometry" />
        </mxCell>
        <mxCell id="FktnuqroC8EsysQ8ZLYT-41" value="100" style="edgeStyle=orthogonalEdgeStyle;rounded=0;orthogonalLoop=1;jettySize=auto;html=1;exitX=0;exitY=1;exitDx=0;exitDy=0;entryX=0.5;entryY=0;entryDx=0;entryDy=0;" edge="1" parent="1" source="FktnuqroC8EsysQ8ZLYT-16" target="FktnuqroC8EsysQ8ZLYT-30">
          <mxGeometry x="0.0667" relative="1" as="geometry">
            <Array as="points">
              <mxPoint x="140" y="600" />
              <mxPoint x="40" y="600" />
              <mxPoint x="40" y="720" />
              <mxPoint x="140" y="720" />
            </Array>
            <mxPoint as="offset" />
          </mxGeometry>
        </mxCell>
        <mxCell id="FktnuqroC8EsysQ8ZLYT-42" value="300" style="edgeStyle=orthogonalEdgeStyle;rounded=0;orthogonalLoop=1;jettySize=auto;html=1;exitX=0;exitY=1;exitDx=0;exitDy=0;" edge="1" parent="1">
          <mxGeometry x="0.2191" relative="1" as="geometry">
            <mxPoint x="140" y="753" as="targetPoint" />
            <mxPoint x="140" y="523" as="sourcePoint" />
            <mxPoint y="-2" as="offset" />
          </mxGeometry>
        </mxCell>
        <mxCell id="FktnuqroC8EsysQ8ZLYT-43" value="600" style="edgeStyle=orthogonalEdgeStyle;rounded=0;orthogonalLoop=1;jettySize=auto;html=1;exitX=0;exitY=1;exitDx=0;exitDy=0;entryX=0.5;entryY=0;entryDx=0;entryDy=0;" edge="1" parent="1" source="FktnuqroC8EsysQ8ZLYT-16" target="FktnuqroC8EsysQ8ZLYT-30">
          <mxGeometry x="0.0698" relative="1" as="geometry">
            <Array as="points">
              <mxPoint x="140" y="600" />
              <mxPoint x="240" y="600" />
              <mxPoint x="240" y="720" />
              <mxPoint x="140" y="720" />
            </Array>
            <mxPoint as="offset" />
          </mxGeometry>
        </mxCell>
        <mxCell id="FktnuqroC8EsysQ8ZLYT-50" style="edgeStyle=orthogonalEdgeStyle;rounded=0;orthogonalLoop=1;jettySize=auto;html=1;exitX=1;exitY=1;exitDx=0;exitDy=0;" edge="1" parent="1" source="FktnuqroC8EsysQ8ZLYT-16">
          <mxGeometry relative="1" as="geometry">
            <mxPoint x="163" y="543" as="targetPoint" />
          </mxGeometry>
        </mxCell>
        <mxCell id="FktnuqroC8EsysQ8ZLYT-16" value="Amount&amp;nbsp;" style="rhombus;whiteSpace=wrap;html=1;" vertex="1" parent="1">
          <mxGeometry x="95" y="475" width="90" height="90" as="geometry" />
        </mxCell>
        <mxCell id="FktnuqroC8EsysQ8ZLYT-20" style="edgeStyle=orthogonalEdgeStyle;rounded=0;orthogonalLoop=1;jettySize=auto;html=1;exitX=0.5;exitY=1;exitDx=0;exitDy=0;entryX=1;entryY=1;entryDx=0;entryDy=0;" edge="1" parent="1" source="FktnuqroC8EsysQ8ZLYT-17" target="FktnuqroC8EsysQ8ZLYT-59">
          <mxGeometry relative="1" as="geometry">
            <mxPoint x="480" y="590" as="targetPoint" />
            <Array as="points">
              <mxPoint x="660" y="570" />
              <mxPoint x="420" y="570" />
            </Array>
          </mxGeometry>
        </mxCell>
        <mxCell id="FktnuqroC8EsysQ8ZLYT-17" value="Status: bankruptcy&amp;nbsp;" style="rounded=1;whiteSpace=wrap;html=1;" vertex="1" parent="1">
          <mxGeometry x="600" y="490" width="120" height="60" as="geometry" />
        </mxCell>
        <mxCell id="FktnuqroC8EsysQ8ZLYT-21" value="" style="endArrow=classic;startArrow=classic;html=1;rounded=0;exitX=0.5;exitY=0;exitDx=0;exitDy=0;entryX=0;entryY=0.5;entryDx=0;entryDy=0;" edge="1" parent="1" source="FktnuqroC8EsysQ8ZLYT-2" target="FktnuqroC8EsysQ8ZLYT-1">
          <mxGeometry width="50" height="50" relative="1" as="geometry">
            <mxPoint x="400" y="210" as="sourcePoint" />
            <mxPoint x="450" y="160" as="targetPoint" />
            <Array as="points">
              <mxPoint x="160" y="40" />
            </Array>
          </mxGeometry>
        </mxCell>
        <mxCell id="FktnuqroC8EsysQ8ZLYT-33" style="edgeStyle=orthogonalEdgeStyle;rounded=0;orthogonalLoop=1;jettySize=auto;html=1;exitX=1;exitY=0.5;exitDx=0;exitDy=0;entryX=0.5;entryY=1;entryDx=0;entryDy=0;" edge="1" parent="1" source="FktnuqroC8EsysQ8ZLYT-30">
          <mxGeometry relative="1" as="geometry">
            <mxPoint x="400" y="560" as="targetPoint" />
            <Array as="points">
              <mxPoint x="400" y="790" />
            </Array>
          </mxGeometry>
        </mxCell>
        <mxCell id="FktnuqroC8EsysQ8ZLYT-30" value="Get the money" style="rounded=1;whiteSpace=wrap;html=1;" vertex="1" parent="1">
          <mxGeometry x="60" y="760" width="160" height="60" as="geometry" />
        </mxCell>
        <mxCell id="FktnuqroC8EsysQ8ZLYT-38" style="edgeStyle=orthogonalEdgeStyle;rounded=0;orthogonalLoop=1;jettySize=auto;html=1;exitX=0.5;exitY=1;exitDx=0;exitDy=0;entryX=0.5;entryY=0;entryDx=0;entryDy=0;" edge="1" parent="1" source="FktnuqroC8EsysQ8ZLYT-35" target="FktnuqroC8EsysQ8ZLYT-36">
          <mxGeometry relative="1" as="geometry" />
        </mxCell>
        <mxCell id="FktnuqroC8EsysQ8ZLYT-35" value="Insert Pin" style="shape=parallelogram;perimeter=parallelogramPerimeter;whiteSpace=wrap;html=1;fixedSize=1;" vertex="1" parent="1">
          <mxGeometry x="340" y="280" width="120" height="60" as="geometry" />
        </mxCell>
        <mxCell id="FktnuqroC8EsysQ8ZLYT-37" value="Yes" style="edgeStyle=orthogonalEdgeStyle;rounded=0;orthogonalLoop=1;jettySize=auto;html=1;exitX=0.5;exitY=1;exitDx=0;exitDy=0;entryX=0.5;entryY=0;entryDx=0;entryDy=0;" edge="1" parent="1" source="FktnuqroC8EsysQ8ZLYT-36">
          <mxGeometry relative="1" as="geometry">
            <mxPoint x="400" y="480" as="targetPoint" />
          </mxGeometry>
        </mxCell>
        <mxCell id="FktnuqroC8EsysQ8ZLYT-57" value="No" style="edgeStyle=orthogonalEdgeStyle;rounded=0;orthogonalLoop=1;jettySize=auto;html=1;exitX=0;exitY=0.5;exitDx=0;exitDy=0;entryX=0;entryY=0.25;entryDx=0;entryDy=0;" edge="1" parent="1" source="FktnuqroC8EsysQ8ZLYT-36" target="FktnuqroC8EsysQ8ZLYT-35">
          <mxGeometry relative="1" as="geometry">
            <Array as="points">
              <mxPoint x="300" y="400" />
              <mxPoint x="300" y="300" />
              <mxPoint x="350" y="300" />
              <mxPoint x="350" y="299" />
            </Array>
          </mxGeometry>
        </mxCell>
        <mxCell id="FktnuqroC8EsysQ8ZLYT-36" value="Correct Pin" style="rhombus;whiteSpace=wrap;html=1;" vertex="1" parent="1">
          <mxGeometry x="360" y="360" width="80" height="80" as="geometry" />
        </mxCell>
        <mxCell id="FktnuqroC8EsysQ8ZLYT-47" value="Withdrawal&amp;nbsp;" style="edgeStyle=orthogonalEdgeStyle;rounded=0;orthogonalLoop=1;jettySize=auto;html=1;exitX=0;exitY=0.5;exitDx=0;exitDy=0;entryX=1;entryY=1;entryDx=0;entryDy=0;" edge="1" parent="1" source="FktnuqroC8EsysQ8ZLYT-59">
          <mxGeometry relative="1" as="geometry">
            <mxPoint x="339.9545454545455" y="535.5663636363637" as="sourcePoint" />
            <mxPoint x="157" y="544.43" as="targetPoint" />
            <Array as="points">
              <mxPoint x="340" y="520" />
              <mxPoint x="340" y="544" />
            </Array>
          </mxGeometry>
        </mxCell>
        <mxCell id="FktnuqroC8EsysQ8ZLYT-49" value="Deposit" style="edgeStyle=orthogonalEdgeStyle;rounded=0;orthogonalLoop=1;jettySize=auto;html=1;exitX=0;exitY=0.5;exitDx=0;exitDy=0;entryX=1;entryY=0;entryDx=0;entryDy=0;" edge="1" parent="1" source="FktnuqroC8EsysQ8ZLYT-59" target="FktnuqroC8EsysQ8ZLYT-16">
          <mxGeometry relative="1" as="geometry">
            <mxPoint x="347.5" y="490" as="sourcePoint" />
            <Array as="points">
              <mxPoint x="340" y="520" />
              <mxPoint x="340" y="498" />
            </Array>
          </mxGeometry>
        </mxCell>
        <mxCell id="FktnuqroC8EsysQ8ZLYT-58" value="That´s me leaving&amp;nbsp;" style="shape=umlActor;verticalLabelPosition=bottom;verticalAlign=top;html=1;outlineConnect=0;" vertex="1" parent="1">
          <mxGeometry x="630" y="180" width="30" height="60" as="geometry" />
        </mxCell>
        <mxCell id="FktnuqroC8EsysQ8ZLYT-59" value="Options" style="rhombus;whiteSpace=wrap;html=1;" vertex="1" parent="1">
          <mxGeometry x="360" y="480" width="80" height="80" as="geometry" />
        </mxCell>
      </root>
    </mxGraphModel>
  </diagram>
</mxfile>
